<svg xmlns="http://www.w3.org/2000/svg" xmlns:xlink="http://www.w3.org/1999/xlink" width="1080" zoomAndPan="magnify" viewBox="0 0 810 809.999993" height="1080" preserveAspectRatio="xMidYMid meet" version="1.0"><defs><g/><clipPath id="e5dce0c8d0"><path d="M 38.019531 455.367188 L 391.941406 455.367188 L 391.941406 477.679688 L 38.019531 477.679688 Z M 38.019531 455.367188 " clip-rule="nonzero"/></clipPath><clipPath id="ff03608b86"><path d="M 480.371094 328.554688 L 766.335938 328.554688 L 766.335938 350.867188 L 480.371094 350.867188 Z M 480.371094 328.554688 " clip-rule="nonzero"/></clipPath><clipPath id="a8ecea2e65"><path d="M 428.554688 367.3125 L 456.816406 367.3125 L 456.816406 390.867188 L 428.554688 390.867188 Z M 405 390.867188 L 480.371094 390.867188 L 480.371094 419.132812 L 405 419.132812 Z M 428.554688 419.132812 L 456.816406 419.132812 L 456.816406 442.6875 L 428.554688 442.6875 Z M 428.554688 419.132812 " clip-rule="nonzero"/></clipPath></defs><g clip-path="url(#e5dce0c8d0)"><path fill="#ffffff" d="M 38.019531 455.367188 L 391.96875 455.367188 L 391.96875 477.679688 L 38.019531 477.679688 Z M 38.019531 455.367188 " fill-opacity="1" fill-rule="nonzero"/></g><g clip-path="url(#ff03608b86)"><path fill="#ffffff" d="M 480.371094 328.554688 L 766.335938 328.554688 L 766.335938 350.867188 L 480.371094 350.867188 Z M 480.371094 328.554688 " fill-opacity="1" fill-rule="nonzero"/></g><g fill="#ffffff" fill-opacity="1"><g transform="translate(38.361637, 423.531531)"><g><path d="M 10.890625 0 L 10.890625 -90.703125 L 28.375 -90.703125 L 60.640625 -43.671875 L 92.78125 -90.703125 L 110.140625 -90.703125 L 110.140625 0 L 89.671875 0 L 89.671875 -54.546875 L 67.640625 -22.421875 L 53.390625 -22.421875 L 31.359375 -54.6875 L 31.359375 0 Z M 10.890625 0 "/></g></g></g><g fill="#ffffff" fill-opacity="1"><g transform="translate(186.207337, 423.531531)"><g><path d="M 10.890625 0 L 10.890625 -90.703125 L 70.484375 -90.703125 L 70.484375 -73.34375 L 31.359375 -73.34375 L 31.359375 -54.546875 L 66.984375 -54.546875 L 66.984375 -37.3125 L 31.359375 -37.3125 L 31.359375 -17.5 L 71.921875 -17.5 L 71.921875 0 Z M 10.890625 0 "/></g></g></g><g fill="#ffffff" fill-opacity="1"><g transform="translate(291.55268, 423.531531)"><g><path d="M 10.890625 0 L 10.890625 -90.703125 L 46.78125 -90.703125 C 56.363281 -90.703125 64.738281 -88.800781 71.90625 -85 C 79.082031 -81.195312 84.65625 -75.882812 88.625 -69.0625 C 92.601562 -62.238281 94.59375 -54.335938 94.59375 -45.359375 C 94.59375 -36.285156 92.601562 -28.359375 88.625 -21.578125 C 84.65625 -14.796875 79.082031 -9.503906 71.90625 -5.703125 C 64.738281 -1.898438 56.363281 0 46.78125 0 Z M 31.484375 -18.921875 L 46.390625 -18.921875 C 51.742188 -18.921875 56.453125 -20.019531 60.515625 -22.21875 C 64.578125 -24.425781 67.75 -27.515625 70.03125 -31.484375 C 72.320312 -35.460938 73.46875 -40.085938 73.46875 -45.359375 C 73.46875 -50.710938 72.320312 -55.351562 70.03125 -59.28125 C 67.75 -63.207031 64.554688 -66.269531 60.453125 -68.46875 C 56.347656 -70.675781 51.570312 -71.78125 46.125 -71.78125 L 31.484375 -71.78125 Z M 31.484375 -18.921875 "/></g></g></g><g fill="#ffffff" fill-opacity="1"><g transform="translate(493.783227, 496.671422)"><g><path d="M 10.890625 0 L 10.890625 -90.703125 L 31.484375 -90.703125 L 31.484375 0 Z M 10.890625 0 "/></g></g></g><g fill="#ffffff" fill-opacity="1"><g transform="translate(562.97538, 496.671422)"><g><path d="M 10.890625 0 L 10.890625 -90.703125 L 67.765625 -90.703125 L 67.765625 -72.046875 L 31.484375 -72.046875 L 31.484375 -49.375 L 64.40625 -49.375 L 64.40625 -31.234375 L 31.484375 -31.234375 L 31.484375 0 Z M 10.890625 0 "/></g></g></g><g fill="#ffffff" fill-opacity="1"><g transform="translate(663.263966, 496.671422)"><g><path d="M 34.59375 0 L 34.59375 -31.75 L 1.171875 -90.703125 L 24.625 -90.703125 L 35.890625 -69.71875 L 44.96875 -53.25 L 53.90625 -69.71875 L 65.046875 -90.703125 L 88.5 -90.703125 L 55.203125 -32 L 55.203125 0 Z M 34.59375 0 "/></g></g></g><g clip-path="url(#a8ecea2e65)"><path fill="#f10d0d" d="M 405 367.3125 L 480.371094 367.3125 L 480.371094 442.6875 L 405 442.6875 Z M 405 367.3125 " fill-opacity="1" fill-rule="nonzero"/></g></svg>